<svg width="40" height="33" xmlns="http://www.w3.org/2000/svg"><g fill="#B2B2B2" fill-rule="evenodd"><path d="M35.322 28.525c2.504-1.829 4.103-4.534 4.103-7.54 0-5.508-5.316-9.973-11.875-9.973-6.558 0-11.875 4.465-11.875 9.974 0 5.508 5.317 9.974 11.875 9.974a13.96 13.96 0 003.876-.547c.11-.034.228-.052.35-.052.227 0 .434.07.63.183l2.6 1.513a.453.453 0 00.228.075.397.397 0 00.396-.4c0-.098-.039-.197-.064-.291l-.535-2.012a.8.8 0 01.291-.904m-11.73-9.237a1.488 1.488 0 01-1.483-1.494c0-.825.664-1.494 1.483-1.494.819 0 1.482.669 1.482 1.494s-.663 1.494-1.482 1.494m7.916 0a1.488 1.488 0 01-1.482-1.494c0-.825.663-1.494 1.482-1.494.82 0 1.483.669 1.483 1.494s-.664 1.494-1.483 1.494"/><path d="M14.25 0C6.38 0 0 5.359 0 11.969c0 3.607 1.92 6.853 4.923 9.047a.959.959 0 01.35 1.085l-.643 2.414c-.03.114-.076.232-.076.35 0 .265.212.479.475.479a.529.529 0 00.274-.09l3.12-1.815c.235-.136.483-.22.756-.22.146 0 .287.022.42.063a16.732 16.732 0 005.433.637 9.286 9.286 0 01-.478-2.933c0-6.028 5.818-10.916 12.996-10.916.26 0 .326.008.582.02C27.06 4.374 21.36 0 14.25 0M9.5 9.837c-.93 0-1.685-.76-1.685-1.698S8.569 6.44 9.5 6.44c.93 0 1.684.76 1.684 1.698 0 .937-.754 1.698-1.684 1.698m9.5 0c-.93 0-1.685-.76-1.685-1.698S18.07 6.44 19 6.44s1.685.76 1.685 1.698c0 .937-.755 1.698-1.685 1.698"/></g></svg>