<?xml version="1.0" encoding="UTF-8"?>
<svg width="940px" height="540px" viewBox="0 0 940 540" version="1.1" xmlns="http://www.w3.org/2000/svg" xmlns:xlink="http://www.w3.org/1999/xlink">
    <title>编组 11</title>
    <defs>
        <filter x="-4.6%" y="-6.0%" width="109.2%" height="112.0%" filterUnits="objectBoundingBox" id="filter-1">
            <feOffset dx="-3" dy="1" in="SourceAlpha" result="shadowOffsetOuter1"></feOffset>
            <feGaussianBlur stdDeviation="2.5" in="shadowOffsetOuter1" result="shadowBlurOuter1"></feGaussianBlur>
            <feColorMatrix values="0 0 0 0 0   0 0 0 0 0   0 0 0 0 0  0 0 0 0.2 0" type="matrix" in="shadowBlurOuter1" result="shadowMatrixOuter1"></feColorMatrix>
            <feMerge>
                <feMergeNode in="shadowMatrixOuter1"></feMergeNode>
                <feMergeNode in="SourceGraphic"></feMergeNode>
            </feMerge>
        </filter>
        <polygon id="path-2" points="0.000704348563 0.0200946502 348.063938 0.0200946502 348.063938 265.460894 0.000704348563 265.460894"></polygon>
        <polygon id="path-4" points="0 0.160314487 52 0.160314487 52 232.960314 0 232.960314"></polygon>
        <filter x="-8.1%" y="-7.6%" width="116.2%" height="115.2%" filterUnits="objectBoundingBox" id="filter-6">
            <feOffset dx="2" dy="3" in="SourceAlpha" result="shadowOffsetOuter1"></feOffset>
            <feGaussianBlur stdDeviation="4.5" in="shadowOffsetOuter1" result="shadowBlurOuter1"></feGaussianBlur>
            <feColorMatrix values="0 0 0 0 0   0 0 0 0 0   0 0 0 0 0  0 0 0 0.2 0" type="matrix" in="shadowBlurOuter1" result="shadowMatrixOuter1"></feColorMatrix>
            <feMerge>
                <feMergeNode in="shadowMatrixOuter1"></feMergeNode>
                <feMergeNode in="SourceGraphic"></feMergeNode>
            </feMerge>
        </filter>
        <polygon id="path-7" points="0 0.0309289431 283.078489 0.0309289431 283.078489 200.63736 0 200.63736"></polygon>
        <polygon id="path-9" points="0 0.337949051 284 0.337949051 284 301.937949 0 301.937949"></polygon>
        <filter x="-2.6%" y="-3.0%" width="105.2%" height="106.1%" filterUnits="objectBoundingBox" id="filter-11">
            <feGaussianBlur stdDeviation="5.12" in="SourceGraphic"></feGaussianBlur>
        </filter>
        <polygon id="path-12" points="0.48 0.1602048 165.28 0.1602048 165.28 499.999181 0.48 499.999181"></polygon>
    </defs>
    <g id="页面-1" stroke="none" stroke-width="1" fill="none" fill-rule="evenodd">
        <g id="桌面端/平板横版（缩小80%）备份" transform="translate(-76.000000, -141.000000)">
            <g id="编组-11" transform="translate(88.000000, 157.000000)">
                <g id="编组备份" filter="url(#filter-1)" transform="translate(0.000000, 147.000000)">
                    <g id="编组" transform="translate(0.000000, 0.136174)">
                        <mask id="mask-3" fill="white">
                            <use xlink:href="#path-2"></use>
                        </mask>
                        <g id="Clip-2"></g>
                        <path d="M0.000704348563,1.93474883 C0.000704348563,0.878225984 0.857661768,0.0189207359 1.91418461,0.0189207359 L346.150458,0.0189207359 C347.209329,0.0189207359 348.063938,0.878225984 348.063938,1.93474883 L348.063938,263.478153 C348.063938,264.574589 347.145937,265.462068 346.014284,265.462068 C193.076887,265.549434 78.3082776,265.549434 1.70845463,265.462068 C1.02228101,265.461286 0.547519631,265.289767 0.2841705,264.947513 C0.0951930658,264.718099 0.000704348563,264.289247 0.000704348563,263.660957 C0.000704348563,205.422891 0.000704348563,118.180821 0.000704348563,1.93474883 Z" id="Fill-1" fill="#FFFFFF" mask="url(#mask-3)"></path>
                    </g>
                    <path d="M0.000704348563,31.9341281 L0.000704348563,1.90070532 C0.000704348563,0.938095611 0.780183426,0.156268706 1.74514096,0.156268706 L346.319502,0.156268706 C347.284459,0.156268706 348.063938,0.938095611 348.063938,1.90070532 L348.063938,31.9341281 L0.000704348563,31.9341281 Z" id="Fill-7" fill="#F7F7F7"></path>
                    <g id="编组" transform="translate(0.000000, 32.639686)">
                        <mask id="mask-5" fill="white">
                            <use xlink:href="#path-4"></use>
                        </mask>
                        <g id="Clip-4"></g>
                        <path d="M52,232.960314 L52,0.160314487 L0,0.160314487 L0,231.22232 C0,232.181375 0.779976507,232.960314 1.74554983,232.960314 L52,232.960314 Z" id="Fill-3" fill="#F7F7F7" mask="url(#mask-5)"></path>
                    </g>
                    <polygon id="矩形" fill="#E5E5E5" points="0 31.9341281 52 31.9341281 52 53.6 0 53.6"></polygon>
                    <polygon id="Fill-15" fill="#F7F7F7" points="77.7633684 71.1711488 64.6789199 71.1711488 64.6789199 53.6 73.276668 53.6 77.7633684 58.0867004"></polygon>
                    <polygon id="Fill-15备份" fill="#F7F7F7" points="77.7633684 107.971149 64.6789199 107.971149 64.6789199 90.4 73.276668 90.4 77.7633684 94.8867004"></polygon>
                    <polygon id="Fill-15备份-2" fill="#F7F7F7" points="77.7633684 144.771149 64.6789199 144.771149 64.6789199 127.2 73.276668 127.2 77.7633684 131.6867"></polygon>
                    <polygon id="Fill-15备份-3" fill="#F7F7F7" points="77.7633684 181.571149 64.6789199 181.571149 64.6789199 164 73.276668 164 77.7633684 168.4867"></polygon>
                    <polygon id="Fill-15备份-4" fill="#F7F7F7" points="77.7633684 218.371149 64.6789199 218.371149 64.6789199 200.8 73.276668 200.8 77.7633684 205.2867"></polygon>
                    <polygon id="Fill-15备份-5" fill="#F7F7F7" points="77.7633684 255.171149 64.6789199 255.171149 64.6789199 237.6 73.276668 237.6 77.7633684 242.0867"></polygon>
                </g>
                <g id="编组备份-4" filter="url(#filter-6)" transform="translate(626.400000, 128.800000)">
                    <g id="编组" transform="translate(0.000000, 1.379102)">
                        <mask id="mask-8" fill="white">
                            <use xlink:href="#path-7"></use>
                        </mask>
                        <g id="Clip-2"></g>
                        <path d="M2.38201043,200.63736 C1.06714179,200.63736 -0.000139879643,199.571477 -0.000139879643,198.256608 L-0.000139879643,2.41251973 C-0.000139879643,1.0976511 1.06714179,0.0303694246 2.38201043,0.0303694246 L277.982682,0.0303694246 C279.29755,0.0303694246 283.078489,4.24799933 283.078489,5.56286796 C283.078489,6.43944706 283.078489,70.6706938 283.078489,198.256608 C283.078489,199.571477 282.012606,200.63736 280.697737,200.63736 L2.38201043,200.63736 Z" id="Fill-1" fill="#FFFFFF" mask="url(#mask-8)"></path>
                    </g>
                    <g id="编组" transform="translate(0.000000, 0.462051)">
                        <mask id="mask-10" fill="white">
                            <use xlink:href="#path-9"></use>
                        </mask>
                        <g id="Clip-20"></g>
                        <path d="M1.90995834,301.937949 C0.856043049,301.937949 0,301.38492 0,299.644163 L0,1.93794905 C-1.082166e-16,1.05429345 0.7163444,0.337949051 1.6,0.337949051 L282.4,0.337949051 C283.283656,0.337949051 284,1.05429345 284,1.93794905 L284,299.644163 L284,299.644163 C284,301.38492 283.146764,301.937949 282.091445,301.937949 L1.90995834,301.937949 Z" id="Fill-19" fill="#FFFFFF" mask="url(#mask-10)"></path>
                    </g>
                    <rect id="矩形" fill="#E5E5E5" x="250.4" y="10.4" width="24.8" height="10.4" rx="5.2"></rect>
                </g>
                <g id="矩形-2备份" transform="translate(164.800000, 0.000000)">
                    <rect id="矩形" fill="#FFFFFF" x="8.48" y="78.08" width="48.64" height="167.2"></rect>
                    <g id="编组-2" transform="translate(0.320000, 0.480000)" fill="#000000" opacity="0.25">
                        <polygon id="矩形备份" filter="url(#filter-11)" transform="translate(294.080000, 253.520000) scale(-1, -1) translate(-294.080000, -253.520000) " points="1.55221605 0.32 586.54995 0.32 587.68 504.085957 0.48 506.72"></polygon>
                    </g>
                    <g id="编组备份-2" transform="translate(8.320000, 0.320000)">
                        <path d="M41.12,499.991479 L3.39951685,499.991479 C1.53554116,499.991479 0.16,498.471048 0.16,496.825421 L0.16,3.36655909 C0.184527399,1.23339108 2.01461017,0.120434406 3.39951685,0.156214037 L41.12,0.156214037 L41.12,499.991479 Z" id="Fill-41" fill="#717171"></path>
                        <g id="编组-7" transform="translate(40.640000, 0.320000)" fill="#F7F7F7" stroke="#F5F5F5" stroke-width="0.64">
                            <path d="M0.32,0.16 L528.42805,0.16 C530.135687,0.16 531.52,0.185537348 531.52,3.35450915 L531.52,496.16 C531.52,497.927311 530.087311,499.36 528.32,499.36 L0.477528276,499.36 L0.477528276,499.36" id="形状"></path>
                        </g>
                        <rect id="矩形" fill="#B2B2B2" x="8" y="12" width="24.32" height="24.32" rx="1.28"></rect>
                        <g id="编组-5" transform="translate(346.160000, 131.200000) scale(-1, 1) translate(-346.160000, -131.200000) translate(224.160000, 119.200000)" fill="#FFFFFF">
                            <rect id="矩形备份-29" x="220.32" y="0" width="23.04" height="23.04" rx="1.28"></rect>
                            <g id="编组-13备份-2">
                                <path d="M151.005442,23.0984174 L208.368034,23.0984174 C210.169722,23.0984174 211.631387,21.6031442 211.631387,19.7549774 L211.631387,3.34343999 C211.631387,1.49753537 210.169722,0 208.368034,0 L3.46643279,0 C1.66695196,0 0.203079828,1.49753537 0.203079828,3.34343999 L0.203079828,19.7549774 C0.203079828,21.6031442 1.66695196,23.0984174 3.46643279,23.0984174" id="Fill-28备份"></path>
                                <polygon id="Fill-29备份" points="214.619474 11.6938563 211.631387 8.96426284 211.631387 13.9444089"></polygon>
                            </g>
                        </g>
                        <rect id="矩形备份-28" fill="#FFFFFF" x="531.36" y="57.28" width="23.04" height="23.04" rx="1.28"></rect>
                        <g id="编组-13备份" transform="translate(448.960000, 57.280000)" fill="#9BEA6B">
                            <path d="M70.6080336,22.9086717 C72.4097224,22.9086717 73.8713866,21.4133985 73.8713866,19.5652317 L73.8713866,3.34343999 C73.8713866,1.49753537 72.4097224,0 70.6080336,0 L3.5239064,0 C1.72442557,0 0.260553435,1.49753537 0.260553435,3.34343999 L0.260553435,19.5652317 C0.260553435,21.4133985 1.72442557,22.9086717 3.5239064,22.9086717 L70.6080336,22.9086717 Z" id="Fill-28备份"></path>
                            <polygon id="Fill-29备份" points="76.8594742 11.6938563 73.8713866 8.96426284 73.8713866 13.9444089"></polygon>
                        </g>
                        <g id="编组" transform="translate(40.800000, 0.000000)">
                            <mask id="mask-13" fill="white">
                                <use xlink:href="#path-12"></use>
                            </mask>
                            <g id="Clip-4"></g>
                            <path d="M165.28,499.999181 C55.5081239,499.999181 0.622185838,499.999181 0.622185838,499.999181 C0.622185838,499.999181 0.48,0.1602048 0.48,0.1602048 C0.48,0.1602048 55.4133333,0.1602048 165.28,0.1602048 L165.28,499.999181 Z" id="Fill-3" fill="#FFFFFF" mask="url(#mask-13)"></path>
                        </g>
                        <polygon id="Fill-9" fill="#E5E5E5" points="40.96 88.32 206.08 88.32 206.08 44.8 40.96 44.8"></polygon>
                        <rect id="矩形备份-26" fill="#F7F7F7" x="50.4" y="53.6" width="26.24" height="26.24" rx="1.28"></rect>
                        <path d="M183.698756,24 L169.901244,24 C169.472063,24 169.12,23.6671257 169.12,23.2578017 L169.12,13.2206056 C169.12,12.814467 169.472063,12.48 169.901244,12.48 L183.698756,12.48 C184.129614,12.48 184.48,12.814467 184.48,13.2206056 L184.48,23.2578017 C184.48,23.6671257 184.129614,24 183.698756,24" id="Fill-12" fill="#FFFFFF"></path>
                        <path d="M14.3785942,71.6674285 C14.534592,71.7769694 14.6363778,71.9571033 14.6363778,72.1599567 C14.6363778,72.2267631 14.6217185,72.2884306 14.6040166,72.3525323 C14.4491251,72.9218744 14.2010222,73.8339036 14.1894053,73.876638 C14.1703205,73.9483129 14.1398954,74.0226925 14.1398954,74.0978836 C14.1398954,74.2644939 14.277085,74.4 14.4466358,74.4 C14.5132945,74.4 14.5677831,74.3751166 14.6242078,74.343742 L16.6377969,73.1974846 C16.7893693,73.1112043 16.9497926,73.0581919 17.1262582,73.0581919 C17.220576,73.0581919 17.3112982,73.0725269 17.3967651,73.0982217 C18.3366244,73.3643654 19.3503337,73.5123132 20.4,73.5123132 C25.4807167,73.5123132 29.6,70.1292582 29.6,65.9558861 C29.6,61.782514 25.4807167,58.4 20.4,58.4 C15.3187301,58.4 11.2,61.782514 11.2,65.9558861 C11.2,68.2327135 12.4391317,70.2820745 14.3785942,71.6674285" id="Fill-1" fill="#07C160"></path>
                        <g id="编组-6" transform="translate(50.400000, 16.000000)" fill="#F7F7F7">
                            <rect id="矩形" x="0" y="0" width="123.2" height="15.36"></rect>
                            <rect id="矩形" x="130.24" y="3.62376795e-13" width="15.36" height="15.36"></rect>
                        </g>
                    </g>
                    <rect id="矩形备份-27" fill="#FFFFFF" x="540" y="180.8" width="23.04" height="23.04" rx="1.28"></rect>
                    <g id="编组-13" transform="translate(401.760000, 180.800000)" fill="#9BEA6B">
                        <path d="M68.9254423,22.9086717 L126.288034,22.9086717 C128.089722,22.9086717 129.551387,21.4133985 129.551387,19.5652317 L129.551387,3.34343999 C129.551387,1.49753537 128.089722,0 126.288034,0 L3.26440026,0 C1.46491943,0 0.00104729009,1.49753537 0.00104729009,3.34343999 L0.00104729009,19.5652317 C0.00104729009,21.4133985 1.46491943,22.9086717 3.26440026,22.9086717" id="Fill-28备份"></path>
                        <polygon id="Fill-29备份" points="132.539474 11.6938563 129.551387 8.96426284 129.551387 13.9444089"></polygon>
                    </g>
                </g>
            </g>
        </g>
    </g>
</svg>